<svg id="visual" viewBox="0 0 960 100" width="960" height="100" xmlns="http://www.w3.org/2000/svg" xmlns:xlink="http://www.w3.org/1999/xlink" version="1.1"><rect x="0" y="0" width="960" height="100" fill="#86A7A6"></rect><path d="M0 38L9.3 35.2C18.7 32.3 37.3 26.7 56.2 29.5C75 32.3 94 43.7 112.8 44.8C131.7 46 150.3 37 169.2 36.5C188 36 207 44 225.8 47C244.7 50 263.3 48 282.2 47C301 46 320 46 338.8 42.5C357.7 39 376.3 32 395.2 33C414 34 433 43 451.8 47.5C470.7 52 489.3 52 508.2 48.7C527 45.3 546 38.7 564.8 37C583.7 35.3 602.3 38.7 621.2 42.3C640 46 659 50 677.8 50.7C696.7 51.3 715.3 48.7 734.2 43.2C753 37.7 772 29.3 790.8 28.5C809.7 27.7 828.3 34.3 847.2 34.5C866 34.7 885 28.3 903.8 25.2C922.7 22 941.3 22 950.7 22L960 22L960 101L950.7 101C941.3 101 922.7 101 903.8 101C885 101 866 101 847.2 101C828.3 101 809.7 101 790.8 101C772 101 753 101 734.2 101C715.3 101 696.7 101 677.8 101C659 101 640 101 621.2 101C602.3 101 583.7 101 564.8 101C546 101 527 101 508.2 101C489.3 101 470.7 101 451.8 101C433 101 414 101 395.2 101C376.3 101 357.7 101 338.8 101C320 101 301 101 282.2 101C263.3 101 244.7 101 225.8 101C207 101 188 101 169.2 101C150.3 101 131.7 101 112.8 101C94 101 75 101 56.2 101C37.3 101 18.7 101 9.3 101L0 101Z" fill="#7d9a99"></path><path d="M0 51L9.3 51.5C18.7 52 37.3 53 56.2 52C75 51 94 48 112.8 45.3C131.7 42.7 150.3 40.3 169.2 41.2C188 42 207 46 225.8 46.3C244.7 46.7 263.3 43.3 282.2 42.7C301 42 320 44 338.8 47.7C357.7 51.3 376.3 56.7 395.2 56.8C414 57 433 52 451.8 52.2C470.7 52.3 489.3 57.7 508.2 59.8C527 62 546 61 564.8 56.5C583.7 52 602.3 44 621.2 42.7C640 41.3 659 46.7 677.8 48.3C696.7 50 715.3 48 734.2 44.8C753 41.7 772 37.3 790.8 39.2C809.7 41 828.3 49 847.2 50.7C866 52.3 885 47.7 903.8 44.2C922.7 40.7 941.3 38.3 950.7 37.2L960 36L960 101L950.7 101C941.3 101 922.7 101 903.8 101C885 101 866 101 847.2 101C828.3 101 809.7 101 790.8 101C772 101 753 101 734.2 101C715.3 101 696.7 101 677.8 101C659 101 640 101 621.2 101C602.3 101 583.7 101 564.8 101C546 101 527 101 508.2 101C489.3 101 470.7 101 451.8 101C433 101 414 101 395.2 101C376.3 101 357.7 101 338.8 101C320 101 301 101 282.2 101C263.3 101 244.7 101 225.8 101C207 101 188 101 169.2 101C150.3 101 131.7 101 112.8 101C94 101 75 101 56.2 101C37.3 101 18.7 101 9.3 101L0 101Z" fill="#698585"></path><path d="M0 55L9.3 57.3C18.7 59.7 37.3 64.3 56.2 65C75 65.7 94 62.3 112.8 58.8C131.7 55.3 150.3 51.7 169.2 54.3C188 57 207 66 225.8 68.7C244.7 71.3 263.3 67.7 282.2 62.8C301 58 320 52 338.8 50.7C357.7 49.3 376.3 52.7 395.2 56.2C414 59.7 433 63.3 451.8 63.8C470.7 64.3 489.3 61.7 508.2 63.2C527 64.7 546 70.3 564.8 70.5C583.7 70.7 602.3 65.3 621.2 65C640 64.7 659 69.3 677.8 71.5C696.7 73.7 715.3 73.3 734.2 71.2C753 69 772 65 790.8 64C809.7 63 828.3 65 847.2 63.3C866 61.7 885 56.3 903.8 54C922.7 51.7 941.3 52.3 950.7 52.7L960 53L960 101L950.7 101C941.3 101 922.7 101 903.8 101C885 101 866 101 847.2 101C828.3 101 809.7 101 790.8 101C772 101 753 101 734.2 101C715.3 101 696.7 101 677.8 101C659 101 640 101 621.2 101C602.3 101 583.7 101 564.8 101C546 101 527 101 508.2 101C489.3 101 470.7 101 451.8 101C433 101 414 101 395.2 101C376.3 101 357.7 101 338.8 101C320 101 301 101 282.2 101C263.3 101 244.7 101 225.8 101C207 101 188 101 169.2 101C150.3 101 131.7 101 112.8 101C94 101 75 101 56.2 101C37.3 101 18.7 101 9.3 101L0 101Z" fill="#567171"></path><path d="M0 66L9.3 65.3C18.7 64.7 37.3 63.3 56.2 63.3C75 63.3 94 64.7 112.8 67.3C131.7 70 150.3 74 169.2 75C188 76 207 74 225.8 75.3C244.7 76.7 263.3 81.3 282.2 79.7C301 78 320 70 338.8 67.8C357.7 65.7 376.3 69.3 395.2 70.8C414 72.3 433 71.7 451.8 72.3C470.7 73 489.3 75 508.2 74.3C527 73.7 546 70.3 564.8 70.7C583.7 71 602.3 75 621.2 76.8C640 78.7 659 78.3 677.8 79.7C696.7 81 715.3 84 734.2 83.5C753 83 772 79 790.8 76.5C809.7 74 828.3 73 847.2 70.7C866 68.3 885 64.7 903.8 65.2C922.7 65.7 941.3 70.3 950.7 72.7L960 75L960 101L950.7 101C941.3 101 922.7 101 903.8 101C885 101 866 101 847.2 101C828.3 101 809.7 101 790.8 101C772 101 753 101 734.2 101C715.3 101 696.7 101 677.8 101C659 101 640 101 621.2 101C602.3 101 583.7 101 564.8 101C546 101 527 101 508.2 101C489.3 101 470.7 101 451.8 101C433 101 414 101 395.2 101C376.3 101 357.7 101 338.8 101C320 101 301 101 282.2 101C263.3 101 244.7 101 225.8 101C207 101 188 101 169.2 101C150.3 101 131.7 101 112.8 101C94 101 75 101 56.2 101C37.3 101 18.7 101 9.3 101L0 101Z" fill="#445e5e"></path><path d="M0 92L9.3 90.5C18.7 89 37.3 86 56.2 85.5C75 85 94 87 112.8 86C131.7 85 150.3 81 169.2 79.8C188 78.7 207 80.3 225.8 83.7C244.7 87 263.3 92 282.2 93.7C301 95.3 320 93.7 338.8 92.8C357.7 92 376.3 92 395.2 92C414 92 433 92 451.8 91.8C470.7 91.7 489.3 91.3 508.2 91.2C527 91 546 91 564.8 88.8C583.7 86.7 602.3 82.3 621.2 80.8C640 79.3 659 80.7 677.8 83.7C696.7 86.7 715.3 91.3 734.2 91.3C753 91.3 772 86.7 790.8 82.8C809.7 79 828.3 76 847.2 76.7C866 77.3 885 81.7 903.8 83.8C922.7 86 941.3 86 950.7 86L960 86L960 101L950.7 101C941.3 101 922.7 101 903.8 101C885 101 866 101 847.2 101C828.3 101 809.7 101 790.8 101C772 101 753 101 734.2 101C715.3 101 696.7 101 677.8 101C659 101 640 101 621.2 101C602.3 101 583.7 101 564.8 101C546 101 527 101 508.2 101C489.3 101 470.7 101 451.8 101C433 101 414 101 395.2 101C376.3 101 357.7 101 338.8 101C320 101 301 101 282.2 101C263.3 101 244.7 101 225.8 101C207 101 188 101 169.2 101C150.3 101 131.7 101 112.8 101C94 101 75 101 56.2 101C37.3 101 18.7 101 9.3 101L0 101Z" fill="#324b4b"></path></svg>