<svg id="visual" viewBox="0 0 960 100" width="960" height="100" xmlns="http://www.w3.org/2000/svg" xmlns:xlink="http://www.w3.org/1999/xlink" version="1.1"><rect x="0" y="0" width="960" height="100" fill="#1D1D1D"></rect><path d="M0 30L16 27.7C32 25.3 64 20.7 96 18.3C128 16 160 16 192 23.8C224 31.7 256 47.3 288 48.2C320 49 352 35 384 26C416 17 448 13 480 18.8C512 24.7 544 40.3 576 42.2C608 44 640 32 672 26.7C704 21.3 736 22.7 768 26C800 29.3 832 34.7 864 31.2C896 27.7 928 15.3 944 9.2L960 3L960 101L944 101C928 101 896 101 864 101C832 101 800 101 768 101C736 101 704 101 672 101C640 101 608 101 576 101C544 101 512 101 480 101C448 101 416 101 384 101C352 101 320 101 288 101C256 101 224 101 192 101C160 101 128 101 96 101C64 101 32 101 16 101L0 101Z" fill="#181c1b"></path><path d="M0 29L16 36.3C32 43.7 64 58.3 96 63.3C128 68.3 160 63.7 192 61.8C224 60 256 61 288 58.5C320 56 352 50 384 44.8C416 39.7 448 35.3 480 34.7C512 34 544 37 576 36.2C608 35.3 640 30.7 672 32.5C704 34.3 736 42.7 768 44C800 45.3 832 39.7 864 38.8C896 38 928 42 944 44L960 46L960 101L944 101C928 101 896 101 864 101C832 101 800 101 768 101C736 101 704 101 672 101C640 101 608 101 576 101C544 101 512 101 480 101C448 101 416 101 384 101C352 101 320 101 288 101C256 101 224 101 192 101C160 101 128 101 96 101C64 101 32 101 16 101L0 101Z" fill="#182320"></path><path d="M0 77L16 73.8C32 70.7 64 64.3 96 60.8C128 57.3 160 56.7 192 58.7C224 60.7 256 65.3 288 67.3C320 69.3 352 68.7 384 70C416 71.3 448 74.7 480 70.2C512 65.7 544 53.3 576 49.5C608 45.7 640 50.3 672 53.2C704 56 736 57 768 58.5C800 60 832 62 864 65.3C896 68.7 928 73.3 944 75.7L960 78L960 101L944 101C928 101 896 101 864 101C832 101 800 101 768 101C736 101 704 101 672 101C640 101 608 101 576 101C544 101 512 101 480 101C448 101 416 101 384 101C352 101 320 101 288 101C256 101 224 101 192 101C160 101 128 101 96 101C64 101 32 101 16 101L0 101Z" fill="#182a25"></path><path d="M0 64L16 65.5C32 67 64 70 96 68.2C128 66.3 160 59.7 192 60C224 60.3 256 67.7 288 72C320 76.3 352 77.7 384 78C416 78.3 448 77.7 480 75.5C512 73.3 544 69.7 576 65.5C608 61.3 640 56.7 672 59.7C704 62.7 736 73.3 768 78.2C800 83 832 82 864 78.3C896 74.7 928 68.3 944 65.2L960 62L960 101L944 101C928 101 896 101 864 101C832 101 800 101 768 101C736 101 704 101 672 101C640 101 608 101 576 101C544 101 512 101 480 101C448 101 416 101 384 101C352 101 320 101 288 101C256 101 224 101 192 101C160 101 128 101 96 101C64 101 32 101 16 101L0 101Z" fill="#18312a"></path><path d="M0 81L16 78.7C32 76.3 64 71.7 96 72C128 72.3 160 77.7 192 82.3C224 87 256 91 288 89C320 87 352 79 384 76.5C416 74 448 77 480 78.3C512 79.7 544 79.3 576 82.2C608 85 640 91 672 93.8C704 96.7 736 96.3 768 93C800 89.7 832 83.3 864 82C896 80.7 928 84.3 944 86.2L960 88L960 101L944 101C928 101 896 101 864 101C832 101 800 101 768 101C736 101 704 101 672 101C640 101 608 101 576 101C544 101 512 101 480 101C448 101 416 101 384 101C352 101 320 101 288 101C256 101 224 101 192 101C160 101 128 101 96 101C64 101 32 101 16 101L0 101Z" fill="#17382e"></path></svg>