<svg id="visual" viewBox="0 0 960 300" width="960" height="300" xmlns="http://www.w3.org/2000/svg" xmlns:xlink="http://www.w3.org/1999/xlink" version="1.1"><rect x="0" y="0" width="960" height="300" fill="#1D1D1D"></rect><path d="M0 194L22.8 192.3C45.7 190.7 91.3 187.3 137 186.5C182.7 185.7 228.3 187.3 274 187.7C319.7 188 365.3 187 411.2 190.7C457 194.3 503 202.7 548.8 206.5C594.7 210.3 640.3 209.7 686 205.2C731.7 200.7 777.3 192.3 823 188.7C868.7 185 914.3 186 937.2 186.5L960 187L960 301L937.2 301C914.3 301 868.7 301 823 301C777.3 301 731.7 301 686 301C640.3 301 594.7 301 548.8 301C503 301 457 301 411.2 301C365.3 301 319.7 301 274 301C228.3 301 182.7 301 137 301C91.3 301 45.7 301 22.8 301L0 301Z" fill="#181c1b"></path><path d="M0 220L22.8 221.3C45.7 222.7 91.3 225.3 137 222.5C182.7 219.7 228.3 211.3 274 206.8C319.7 202.3 365.3 201.7 411.2 206.7C457 211.7 503 222.3 548.8 227.3C594.7 232.3 640.3 231.7 686 225.8C731.7 220 777.3 209 823 205.3C868.7 201.7 914.3 205.3 937.2 207.2L960 209L960 301L937.2 301C914.3 301 868.7 301 823 301C777.3 301 731.7 301 686 301C640.3 301 594.7 301 548.8 301C503 301 457 301 411.2 301C365.3 301 319.7 301 274 301C228.3 301 182.7 301 137 301C91.3 301 45.7 301 22.8 301L0 301Z" fill="#18221f"></path><path d="M0 224L22.8 227C45.7 230 91.3 236 137 233.8C182.7 231.7 228.3 221.3 274 217.8C319.7 214.3 365.3 217.7 411.2 218.3C457 219 503 217 548.8 219.3C594.7 221.7 640.3 228.3 686 230.8C731.7 233.3 777.3 231.7 823 229C868.7 226.3 914.3 222.7 937.2 220.8L960 219L960 301L937.2 301C914.3 301 868.7 301 823 301C777.3 301 731.7 301 686 301C640.3 301 594.7 301 548.8 301C503 301 457 301 411.2 301C365.3 301 319.7 301 274 301C228.3 301 182.7 301 137 301C91.3 301 45.7 301 22.8 301L0 301Z" fill="#182723"></path><path d="M0 243L22.8 241.7C45.7 240.3 91.3 237.7 137 238.8C182.7 240 228.3 245 274 246.7C319.7 248.3 365.3 246.7 411.2 246.5C457 246.3 503 247.7 548.8 246.2C594.7 244.7 640.3 240.3 686 241.7C731.7 243 777.3 250 823 252.2C868.7 254.3 914.3 251.7 937.2 250.3L960 249L960 301L937.2 301C914.3 301 868.7 301 823 301C777.3 301 731.7 301 686 301C640.3 301 594.7 301 548.8 301C503 301 457 301 411.2 301C365.3 301 319.7 301 274 301C228.3 301 182.7 301 137 301C91.3 301 45.7 301 22.8 301L0 301Z" fill="#182d27"></path><path d="M0 255L22.8 257C45.7 259 91.3 263 137 266.2C182.7 269.3 228.3 271.7 274 269.7C319.7 267.7 365.3 261.3 411.2 259.8C457 258.3 503 261.7 548.8 260.7C594.7 259.7 640.3 254.3 686 254.3C731.7 254.3 777.3 259.7 823 262.8C868.7 266 914.3 267 937.2 267.5L960 268L960 301L937.2 301C914.3 301 868.7 301 823 301C777.3 301 731.7 301 686 301C640.3 301 594.7 301 548.8 301C503 301 457 301 411.2 301C365.3 301 319.7 301 274 301C228.3 301 182.7 301 137 301C91.3 301 45.7 301 22.8 301L0 301Z" fill="#18322b"></path><path d="M0 285L22.8 282.5C45.7 280 91.3 275 137 273C182.7 271 228.3 272 274 274.2C319.7 276.3 365.3 279.7 411.2 279.2C457 278.7 503 274.3 548.8 274.8C594.7 275.3 640.3 280.7 686 283.2C731.7 285.7 777.3 285.3 823 282.2C868.7 279 914.3 273 937.2 270L960 267L960 301L937.2 301C914.3 301 868.7 301 823 301C777.3 301 731.7 301 686 301C640.3 301 594.7 301 548.8 301C503 301 457 301 411.2 301C365.3 301 319.7 301 274 301C228.3 301 182.7 301 137 301C91.3 301 45.7 301 22.8 301L0 301Z" fill="#17382e"></path></svg>