<svg id="visual" viewBox="0 0 900 100" width="900" height="100" xmlns="http://www.w3.org/2000/svg" xmlns:xlink="http://www.w3.org/1999/xlink" version="1.1"><rect x="0" y="0" width="900" height="100" fill="#86A7A6"></rect><path d="M0 50L13.7 48.8C27.3 47.7 54.7 45.3 82 41.2C109.3 37 136.7 31 163.8 30.3C191 29.7 218 34.3 245.2 34.3C272.3 34.3 299.7 29.7 327 29.7C354.3 29.7 381.7 34.3 409 37C436.3 39.7 463.7 40.3 491 43.3C518.3 46.3 545.7 51.7 573 49.5C600.3 47.3 627.7 37.7 654.8 33.5C682 29.3 709 30.7 736.2 27.5C763.3 24.3 790.7 16.7 818 16.3C845.3 16 872.7 23 886.3 26.5L900 30L900 101L886.3 101C872.7 101 845.3 101 818 101C790.7 101 763.3 101 736.2 101C709 101 682 101 654.8 101C627.7 101 600.3 101 573 101C545.7 101 518.3 101 491 101C463.7 101 436.3 101 409 101C381.7 101 354.3 101 327 101C299.7 101 272.3 101 245.2 101C218 101 191 101 163.8 101C136.7 101 109.3 101 82 101C54.7 101 27.3 101 13.7 101L0 101Z" fill="#567574"></path><path d="M0 51L13.7 53.5C27.3 56 54.7 61 82 59.5C109.3 58 136.7 50 163.8 51.2C191 52.3 218 62.7 245.2 61.3C272.3 60 299.7 47 327 43.5C354.3 40 381.7 46 409 45C436.3 44 463.7 36 491 38.8C518.3 41.7 545.7 55.3 573 60.8C600.3 66.3 627.7 63.7 654.8 62.7C682 61.7 709 62.3 736.2 61.5C763.3 60.7 790.7 58.3 818 52.5C845.3 46.7 872.7 37.3 886.3 32.7L900 28L900 101L886.3 101C872.7 101 845.3 101 818 101C790.7 101 763.3 101 736.2 101C709 101 682 101 654.8 101C627.7 101 600.3 101 573 101C545.7 101 518.3 101 491 101C463.7 101 436.3 101 409 101C381.7 101 354.3 101 327 101C299.7 101 272.3 101 245.2 101C218 101 191 101 163.8 101C136.7 101 109.3 101 82 101C54.7 101 27.3 101 13.7 101L0 101Z" fill="#4b6166"></path><path d="M0 56L13.7 60.2C27.3 64.3 54.7 72.7 82 75.2C109.3 77.7 136.7 74.3 163.8 74.5C191 74.7 218 78.3 245.2 80C272.3 81.7 299.7 81.3 327 77.5C354.3 73.7 381.7 66.3 409 62.7C436.3 59 463.7 59 491 62.8C518.3 66.7 545.7 74.3 573 77.3C600.3 80.3 627.7 78.7 654.8 77.5C682 76.3 709 75.7 736.2 74.5C763.3 73.3 790.7 71.7 818 68.2C845.3 64.7 872.7 59.3 886.3 56.7L900 54L900 101L886.3 101C872.7 101 845.3 101 818 101C790.7 101 763.3 101 736.2 101C709 101 682 101 654.8 101C627.7 101 600.3 101 573 101C545.7 101 518.3 101 491 101C463.7 101 436.3 101 409 101C381.7 101 354.3 101 327 101C299.7 101 272.3 101 245.2 101C218 101 191 101 163.8 101C136.7 101 109.3 101 82 101C54.7 101 27.3 101 13.7 101L0 101Z" fill="#424d53"></path><path d="M0 71L13.7 72.7C27.3 74.3 54.7 77.7 82 81.2C109.3 84.7 136.7 88.3 163.8 87C191 85.7 218 79.3 245.2 76.2C272.3 73 299.7 73 327 73.2C354.3 73.3 381.7 73.7 409 76.7C436.3 79.7 463.7 85.3 491 87.8C518.3 90.3 545.7 89.7 573 85.3C600.3 81 627.7 73 654.8 68.7C682 64.3 709 63.7 736.2 65.5C763.3 67.3 790.7 71.7 818 74.3C845.3 77 872.7 78 886.3 78.5L900 79L900 101L886.3 101C872.7 101 845.3 101 818 101C790.7 101 763.3 101 736.2 101C709 101 682 101 654.8 101C627.7 101 600.3 101 573 101C545.7 101 518.3 101 491 101C463.7 101 436.3 101 409 101C381.7 101 354.3 101 327 101C299.7 101 272.3 101 245.2 101C218 101 191 101 163.8 101C136.7 101 109.3 101 82 101C54.7 101 27.3 101 13.7 101L0 101Z" fill="#383b3f"></path></svg>