<svg id="visual" viewBox="0 0 960 100" width="960" height="100" xmlns="http://www.w3.org/2000/svg" xmlns:xlink="http://www.w3.org/1999/xlink" version="1.1"><rect x="0" y="0" width="960" height="100" fill="#1D1D1D"></rect><path d="M0 68L16 70.3C32 72.7 64 77.3 96 79.7C128 82 160 82 192 74.2C224 66.3 256 50.7 288 49.8C320 49 352 63 384 72C416 81 448 85 480 79.2C512 73.3 544 57.7 576 55.8C608 54 640 66 672 71.3C704 76.7 736 75.3 768 72C800 68.7 832 63.3 864 66.8C896 70.3 928 82.7 944 88.8L960 95L960 0L944 0C928 0 896 0 864 0C832 0 800 0 768 0C736 0 704 0 672 0C640 0 608 0 576 0C544 0 512 0 480 0C448 0 416 0 384 0C352 0 320 0 288 0C256 0 224 0 192 0C160 0 128 0 96 0C64 0 32 0 16 0L0 0Z" fill="#181c1b"></path><path d="M0 69L16 61.7C32 54.3 64 39.7 96 34.7C128 29.7 160 34.3 192 36.2C224 38 256 37 288 39.5C320 42 352 48 384 53.2C416 58.3 448 62.7 480 63.3C512 64 544 61 576 61.8C608 62.7 640 67.3 672 65.5C704 63.7 736 55.3 768 54C800 52.7 832 58.3 864 59.2C896 60 928 56 944 54L960 52L960 0L944 0C928 0 896 0 864 0C832 0 800 0 768 0C736 0 704 0 672 0C640 0 608 0 576 0C544 0 512 0 480 0C448 0 416 0 384 0C352 0 320 0 288 0C256 0 224 0 192 0C160 0 128 0 96 0C64 0 32 0 16 0L0 0Z" fill="#182320"></path><path d="M0 21L16 24.2C32 27.3 64 33.7 96 37.2C128 40.7 160 41.3 192 39.3C224 37.3 256 32.7 288 30.7C320 28.7 352 29.3 384 28C416 26.7 448 23.3 480 27.8C512 32.3 544 44.7 576 48.5C608 52.3 640 47.7 672 44.8C704 42 736 41 768 39.5C800 38 832 36 864 32.7C896 29.3 928 24.7 944 22.3L960 20L960 0L944 0C928 0 896 0 864 0C832 0 800 0 768 0C736 0 704 0 672 0C640 0 608 0 576 0C544 0 512 0 480 0C448 0 416 0 384 0C352 0 320 0 288 0C256 0 224 0 192 0C160 0 128 0 96 0C64 0 32 0 16 0L0 0Z" fill="#182a25"></path><path d="M0 34L16 32.5C32 31 64 28 96 29.8C128 31.7 160 38.3 192 38C224 37.7 256 30.3 288 26C320 21.7 352 20.3 384 20C416 19.7 448 20.3 480 22.5C512 24.7 544 28.3 576 32.5C608 36.7 640 41.3 672 38.3C704 35.3 736 24.7 768 19.8C800 15 832 16 864 19.7C896 23.3 928 29.7 944 32.8L960 36L960 0L944 0C928 0 896 0 864 0C832 0 800 0 768 0C736 0 704 0 672 0C640 0 608 0 576 0C544 0 512 0 480 0C448 0 416 0 384 0C352 0 320 0 288 0C256 0 224 0 192 0C160 0 128 0 96 0C64 0 32 0 16 0L0 0Z" fill="#18312a"></path><path d="M0 17L16 19.3C32 21.7 64 26.3 96 26C128 25.7 160 20.3 192 15.7C224 11 256 7 288 9C320 11 352 19 384 21.5C416 24 448 21 480 19.7C512 18.3 544 18.7 576 15.8C608 13 640 7 672 4.2C704 1.3 736 1.7 768 5C800 8.3 832 14.7 864 16C896 17.3 928 13.7 944 11.8L960 10L960 0L944 0C928 0 896 0 864 0C832 0 800 0 768 0C736 0 704 0 672 0C640 0 608 0 576 0C544 0 512 0 480 0C448 0 416 0 384 0C352 0 320 0 288 0C256 0 224 0 192 0C160 0 128 0 96 0C64 0 32 0 16 0L0 0Z" fill="#17382e"></path></svg>