<svg id="visual" viewBox="0 0 960 100" width="960" height="100" xmlns="http://www.w3.org/2000/svg" xmlns:xlink="http://www.w3.org/1999/xlink" version="1.1"><rect x="0" y="0" width="960" height="100" fill="#86A7A6"></rect><path d="M0 60L9.3 62.8C18.7 65.7 37.3 71.3 56.2 68.5C75 65.7 94 54.3 112.8 53.2C131.7 52 150.3 61 169.2 61.5C188 62 207 54 225.8 51C244.7 48 263.3 50 282.2 51C301 52 320 52 338.8 55.5C357.7 59 376.3 66 395.2 65C414 64 433 55 451.8 50.5C470.7 46 489.3 46 508.2 49.3C527 52.7 546 59.3 564.8 61C583.7 62.7 602.3 59.3 621.2 55.7C640 52 659 48 677.8 47.3C696.7 46.7 715.3 49.3 734.2 54.8C753 60.3 772 68.7 790.8 69.5C809.7 70.3 828.3 63.7 847.2 63.5C866 63.3 885 69.7 903.8 72.8C922.7 76 941.3 76 950.7 76L960 76L960 0L950.7 0C941.3 0 922.7 0 903.8 0C885 0 866 0 847.2 0C828.3 0 809.7 0 790.8 0C772 0 753 0 734.2 0C715.3 0 696.7 0 677.8 0C659 0 640 0 621.2 0C602.3 0 583.7 0 564.8 0C546 0 527 0 508.2 0C489.3 0 470.7 0 451.8 0C433 0 414 0 395.2 0C376.3 0 357.7 0 338.8 0C320 0 301 0 282.2 0C263.3 0 244.7 0 225.8 0C207 0 188 0 169.2 0C150.3 0 131.7 0 112.8 0C94 0 75 0 56.2 0C37.3 0 18.7 0 9.3 0L0 0Z" fill="#7d9a99"></path><path d="M0 47L9.3 46.5C18.7 46 37.3 45 56.2 46C75 47 94 50 112.8 52.7C131.7 55.3 150.3 57.7 169.2 56.8C188 56 207 52 225.8 51.7C244.7 51.3 263.3 54.7 282.2 55.3C301 56 320 54 338.8 50.3C357.7 46.7 376.3 41.3 395.2 41.2C414 41 433 46 451.8 45.8C470.7 45.7 489.3 40.3 508.2 38.2C527 36 546 37 564.8 41.5C583.7 46 602.3 54 621.2 55.3C640 56.7 659 51.3 677.8 49.7C696.7 48 715.3 50 734.2 53.2C753 56.3 772 60.7 790.8 58.8C809.7 57 828.3 49 847.2 47.3C866 45.7 885 50.3 903.8 53.8C922.7 57.3 941.3 59.7 950.7 60.8L960 62L960 0L950.7 0C941.3 0 922.7 0 903.8 0C885 0 866 0 847.2 0C828.3 0 809.7 0 790.8 0C772 0 753 0 734.2 0C715.3 0 696.7 0 677.8 0C659 0 640 0 621.2 0C602.3 0 583.7 0 564.8 0C546 0 527 0 508.2 0C489.3 0 470.7 0 451.8 0C433 0 414 0 395.2 0C376.3 0 357.7 0 338.8 0C320 0 301 0 282.2 0C263.3 0 244.7 0 225.8 0C207 0 188 0 169.2 0C150.3 0 131.7 0 112.8 0C94 0 75 0 56.2 0C37.3 0 18.7 0 9.3 0L0 0Z" fill="#698585"></path><path d="M0 43L9.3 40.7C18.7 38.3 37.3 33.7 56.2 33C75 32.3 94 35.7 112.8 39.2C131.7 42.7 150.3 46.3 169.2 43.7C188 41 207 32 225.8 29.3C244.7 26.7 263.3 30.3 282.2 35.2C301 40 320 46 338.8 47.3C357.7 48.7 376.3 45.3 395.2 41.8C414 38.3 433 34.7 451.8 34.2C470.7 33.7 489.3 36.3 508.2 34.8C527 33.3 546 27.7 564.8 27.5C583.7 27.3 602.3 32.7 621.2 33C640 33.3 659 28.7 677.8 26.5C696.7 24.3 715.3 24.7 734.2 26.8C753 29 772 33 790.8 34C809.7 35 828.3 33 847.2 34.7C866 36.3 885 41.7 903.8 44C922.7 46.3 941.3 45.7 950.7 45.3L960 45L960 0L950.7 0C941.3 0 922.7 0 903.8 0C885 0 866 0 847.2 0C828.3 0 809.7 0 790.8 0C772 0 753 0 734.2 0C715.3 0 696.7 0 677.8 0C659 0 640 0 621.2 0C602.3 0 583.7 0 564.8 0C546 0 527 0 508.2 0C489.3 0 470.7 0 451.8 0C433 0 414 0 395.2 0C376.3 0 357.7 0 338.8 0C320 0 301 0 282.2 0C263.3 0 244.7 0 225.8 0C207 0 188 0 169.2 0C150.3 0 131.7 0 112.8 0C94 0 75 0 56.2 0C37.3 0 18.7 0 9.3 0L0 0Z" fill="#567171"></path><path d="M0 32L9.3 32.7C18.7 33.3 37.3 34.7 56.2 34.7C75 34.7 94 33.3 112.8 30.7C131.7 28 150.3 24 169.2 23C188 22 207 24 225.8 22.7C244.7 21.3 263.3 16.7 282.2 18.3C301 20 320 28 338.8 30.2C357.7 32.3 376.3 28.7 395.2 27.2C414 25.7 433 26.3 451.8 25.7C470.7 25 489.3 23 508.2 23.7C527 24.3 546 27.7 564.8 27.3C583.7 27 602.3 23 621.2 21.2C640 19.3 659 19.7 677.8 18.3C696.7 17 715.3 14 734.2 14.5C753 15 772 19 790.8 21.5C809.7 24 828.3 25 847.2 27.3C866 29.7 885 33.3 903.8 32.8C922.7 32.3 941.3 27.7 950.7 25.3L960 23L960 0L950.7 0C941.3 0 922.7 0 903.8 0C885 0 866 0 847.2 0C828.3 0 809.7 0 790.8 0C772 0 753 0 734.2 0C715.3 0 696.7 0 677.8 0C659 0 640 0 621.2 0C602.3 0 583.7 0 564.8 0C546 0 527 0 508.2 0C489.3 0 470.7 0 451.8 0C433 0 414 0 395.2 0C376.3 0 357.7 0 338.8 0C320 0 301 0 282.2 0C263.3 0 244.7 0 225.8 0C207 0 188 0 169.2 0C150.3 0 131.7 0 112.8 0C94 0 75 0 56.2 0C37.3 0 18.7 0 9.3 0L0 0Z" fill="#445e5e"></path><path d="M0 6L9.3 7.5C18.7 9 37.3 12 56.2 12.5C75 13 94 11 112.8 12C131.7 13 150.3 17 169.2 18.2C188 19.3 207 17.7 225.8 14.3C244.7 11 263.3 6 282.2 4.3C301 2.7 320 4.3 338.8 5.2C357.7 6 376.3 6 395.2 6C414 6 433 6 451.8 6.2C470.7 6.3 489.3 6.7 508.2 6.8C527 7 546 7 564.8 9.2C583.7 11.3 602.3 15.7 621.2 17.2C640 18.7 659 17.3 677.8 14.3C696.7 11.3 715.3 6.7 734.2 6.7C753 6.7 772 11.3 790.8 15.2C809.7 19 828.3 22 847.2 21.3C866 20.7 885 16.3 903.8 14.2C922.7 12 941.3 12 950.7 12L960 12L960 0L950.7 0C941.3 0 922.7 0 903.8 0C885 0 866 0 847.2 0C828.3 0 809.7 0 790.8 0C772 0 753 0 734.2 0C715.3 0 696.7 0 677.8 0C659 0 640 0 621.2 0C602.3 0 583.7 0 564.8 0C546 0 527 0 508.2 0C489.3 0 470.7 0 451.8 0C433 0 414 0 395.2 0C376.3 0 357.7 0 338.8 0C320 0 301 0 282.2 0C263.3 0 244.7 0 225.8 0C207 0 188 0 169.2 0C150.3 0 131.7 0 112.8 0C94 0 75 0 56.2 0C37.3 0 18.7 0 9.3 0L0 0Z" fill="#324b4b"></path></svg>